<svg width="30" height="30" viewBox="0 0 30 30" fill="none" xmlns="http://www.w3.org/2000/svg">
<path d="M15 10.9902C17.2092 10.9905 19.0088 12.7898 19.0088 15C19.0088 17.2102 17.2092 19.0095 15 19.0098C12.7902 19.0098 10.9902 17.21 10.9902 15C10.9902 12.79 12.7902 10.9902 15 10.9902Z" stroke="#EEEEEE" stroke-width="2"/>
<path d="M14.9989 8.51816C14.459 8.51816 14.0215 8.0806 14.0215 7.54119V5.97741C14.0215 5.43756 14.459 5 14.9989 5C15.5388 5 15.9763 5.43756 15.9763 5.97741V7.54119C15.9763 8.0806 15.5383 8.51816 14.9989 8.51816Z" fill="#EEEEEE"/>
<path d="M14.9989 21.4814C14.459 21.4814 14.0215 21.919 14.0215 22.4589V24.0222C14.0215 24.5625 14.459 25 14.9989 25C15.5388 25 15.9763 24.5625 15.9763 24.0222V22.4589C15.9763 21.919 15.5383 21.4814 14.9989 21.4814Z" fill="#EEEEEE"/>
<path d="M19.5829 10.4166C19.2015 10.0349 19.2015 9.41616 19.5829 9.03441L20.6887 7.92856C21.07 7.54725 21.6891 7.54725 22.0709 7.92856C22.4527 8.31032 22.4527 8.92945 22.0709 9.31076L20.9651 10.4166C20.5837 10.7984 19.9651 10.7984 19.5829 10.4166Z" fill="#EEEEEE"/>
<path d="M10.4168 19.5835C10.035 19.2013 9.41633 19.2013 9.03457 19.5835L7.92873 20.6889C7.54742 21.0702 7.54697 21.6898 7.92873 22.0711C8.31048 22.4524 8.92961 22.4524 9.31092 22.0711L10.4168 20.9648C10.7985 20.5835 10.7985 19.9644 10.4168 19.5835Z" fill="#EEEEEE"/>
<path d="M21.4814 14.9989C21.4814 14.459 21.919 14.0215 22.4589 14.0215H24.0226C24.5625 14.0215 25 14.459 25 14.9989C25 15.5388 24.5625 15.9759 24.0226 15.9759H22.4589C21.919 15.9759 21.4814 15.5388 21.4814 14.9989Z" fill="#EEEEEE"/>
<path d="M8.51816 14.9989C8.51816 14.459 8.0806 14.0215 7.54074 14.0215H5.97741C5.43756 14.0215 5 14.459 5 14.9989C5 15.5388 5.43756 15.9759 5.97741 15.9759H7.54119C8.0806 15.9759 8.51816 15.5388 8.51816 14.9989Z" fill="#EEEEEE"/>
<path d="M19.5832 19.5848C19.9649 19.2035 20.5841 19.2035 20.9654 19.5848L22.0712 20.6907C22.453 21.0715 22.453 21.6911 22.0712 22.0724C21.6895 22.4537 21.0708 22.4537 20.689 22.0724L19.5832 20.9666C19.2014 20.5848 19.2014 19.9661 19.5832 19.5848Z" fill="#EEEEEE"/>
<path d="M10.4169 10.4165C10.7987 10.0347 10.7987 9.41605 10.4169 9.0343L9.31109 7.92889C8.92934 7.54714 8.31065 7.54714 7.92889 7.92889C7.54714 8.3102 7.54714 8.92934 7.92889 9.31065L9.03474 10.4165C9.41649 10.7987 10.0352 10.7987 10.4169 10.4165Z" fill="#EEEEEE"/>
</svg>
